<?xml version="1.0" encoding="UTF-8"?>
<svg id="Layer_2" data-name="Layer 2" xmlns="http://www.w3.org/2000/svg" viewBox="0 0 100 100">
  <defs>
    <style>
      .cls-1 {
        fill: #ddd;
        fill-rule: evenodd;
      }
    </style>
  </defs>
  <g id="Layer_1-2" data-name="Layer 1">
    <g id="Page-1">
      <g id="Dribbble-Light-Preview">
        <g id="icons">
          <path id="python-_127_" data-name="python-[#127]" class="cls-1" d="M63.72,92.29c-2.41,0-4.36-1.96-4.36-4.38s1.95-4.38,4.36-4.38,4.36,1.95,4.36,4.38-1.95,4.38-4.36,4.38m-13.36,7.71c25.39,0,23.81-11.07,23.81-11.07l-.03-11.46h-24.23v-3.44h33.85s16.24,1.85,16.24-23.89-14.17-24.84-14.17-24.84h-8.47v11.95s.46,14.25-13.95,14.25h-24.03s-13.5-.21-13.5,13.12v22.04s-2.05,13.34,24.48,13.34M36.28,7.71c2.41,0,4.36,1.96,4.36,4.38s-1.94,4.38-4.36,4.38-4.36-1.95-4.36-4.38,1.95-4.38,4.36-4.38M49.64,0C24.26,0,25.84,11.07,25.84,11.07l.03,11.46h24.23v3.44H16.24S0,24.12,0,49.87s14.18,24.84,14.18,24.84h8.46v-11.95s-.46-14.25,13.95-14.25h24.02s13.5,.21,13.5-13.12V13.34S76.17,0,49.64,0"/>
        </g>
      </g>
    </g>
  </g>
</svg>