<?xml version="1.0" encoding="UTF-8"?>
<svg id="Layer_2" data-name="Layer 2" xmlns="http://www.w3.org/2000/svg" viewBox="0 0 70.78 70.78">
  <defs>
    <style>
      .cls-1 {
        fill: #FAD02C;
      }
    </style>
  </defs>
  <g id="Layer_1-2" data-name="Layer 1">
    <path class="cls-1" d="M42.46,35.39l26.32-26.32c2.36-2.36,2.68-5.85,.73-7.8s-5.44-1.63-7.8,.73l-26.32,26.32L9.08,2C6.72-.35,3.23-.68,1.28,1.28c-1.95,1.95-1.63,5.44,.73,7.8l26.32,26.32L2,61.71c-2.36,2.36-2.68,5.85-.73,7.8,1.95,1.95,5.44,1.63,7.8-.73l26.32-26.32,26.32,26.32c2.36,2.36,5.85,2.68,7.8,.73s1.63-5.44-.73-7.8l-26.32-26.32Z"/>
  </g>
</svg>