<?xml version="1.0" encoding="UTF-8"?>
<svg id="Layer_2" data-name="Layer 2" xmlns="http://www.w3.org/2000/svg" viewBox="0 0 80 70.96">
  <defs>
    <style>
      .cls-1 {
        fill: #FAD02C;
      }
    </style>
  </defs>
  <g id="Layer_1-2" data-name="Layer 1">
    <g>
      <path class="cls-1" d="M75,30.48H5c-2.76,0-5,2.24-5,5s2.24,5,5,5H75c2.76,0,5-2.24,5-5s-2.24-5-5-5Z"/>
      <path class="cls-1" d="M75,0H5C2.24,0,0,2.24,0,5s2.24,5,5,5H75c2.76,0,5-2.24,5-5s-2.24-5-5-5Z"/>
      <path class="cls-1" d="M75,60.96H5c-2.76,0-5,2.24-5,5s2.24,5,5,5H75c2.76,0,5-2.24,5-5s-2.24-5-5-5Z"/>
    </g>
  </g>
</svg>